<svg xmlns="http://www.w3.org/2000/svg" width="400" height="164" viewBox="0 0 400 164"><rect x="0.5" y="0.5" width="399" height="163" rx="6" fill="#0d1117" stroke="#30363d"/><text x="24" y="36" fill="#58a6ff" style="font-family:'Segoe UI',Ubuntu,Helvetica,Arial,sans-serif;font-size:17px;font-weight:600">Top Languages</text><clipPath id="c"><rect x="24" y="54" width="352" height="10" rx="5"/></clipPath><g clip-path="url(#c)"><rect x="24.00" y="54" width="232.22" height="10" fill="#3572A5"/><rect x="256.22" y="54" width="45.40" height="10" fill="#3178c6"/><rect x="301.62" y="54" width="30.43" height="10" fill="#663399"/><rect x="332.05" y="54" width="24.71" height="10" fill="#f1e05a"/><rect x="356.76" y="54" width="17.64" height="10" fill="#e34c26"/><rect x="374.40" y="54" width="1.60" height="10" fill="#89e051"/></g><circle cx="29" cy="88" r="5" fill="#3572A5"/><text x="40" y="92" fill="#c9d1d9" style="font-family:'Segoe UI',Ubuntu,Helvetica,Arial,sans-serif;font-size:13px">Python <tspan fill="#8b949e">66.0%</tspan></text><circle cx="209" cy="88" r="5" fill="#3178c6"/><text x="220" y="92" fill="#c9d1d9" style="font-family:'Segoe UI',Ubuntu,Helvetica,Arial,sans-serif;font-size:13px">TypeScript <tspan fill="#8b949e">12.9%</tspan></text><circle cx="29" cy="112" r="5" fill="#663399"/><text x="40" y="116" fill="#c9d1d9" style="font-family:'Segoe UI',Ubuntu,Helvetica,Arial,sans-serif;font-size:13px">CSS <tspan fill="#8b949e">8.6%</tspan></text><circle cx="209" cy="112" r="5" fill="#f1e05a"/><text x="220" y="116" fill="#c9d1d9" style="font-family:'Segoe UI',Ubuntu,Helvetica,Arial,sans-serif;font-size:13px">JavaScript <tspan fill="#8b949e">7.0%</tspan></text><circle cx="29" cy="136" r="5" fill="#e34c26"/><text x="40" y="140" fill="#c9d1d9" style="font-family:'Segoe UI',Ubuntu,Helvetica,Arial,sans-serif;font-size:13px">HTML <tspan fill="#8b949e">5.0%</tspan></text><circle cx="209" cy="136" r="5" fill="#89e051"/><text x="220" y="140" fill="#c9d1d9" style="font-family:'Segoe UI',Ubuntu,Helvetica,Arial,sans-serif;font-size:13px">Shell <tspan fill="#8b949e">0.5%</tspan></text></svg>